<?xml version="1.0" standalone="no"?> <!DOCTYPE svg PUBLIC "-//W3C//DTD SVG 1.0//EN" "http://www.w3.org/TR/2001/REC-SVG-20010904/DTD/svg10.dtd" > <svg xmlns="http://www.w3.org/2000/svg" width="100%" height="100%">
<defs >
<font horiz-adv-x="518" ><font-face
    font-family="The Castle Elizah"
    units-per-em="1000"
    panose-1="2 0 5 0 0 0 0 9 0 0"
    ascent="750"
    descent="-250"
    alphabetic="0" />
<missing-glyph horiz-adv-x="500" d="M49 0L223 700H626L451 0H49ZM595 676H242L79 24H433L595 676ZM273 222Q268 270 274 294Q283 331 340 400Q396 470 407 506Q414 534 402 550T361 566Q344 566 329 560T293 539L298 561Q325 581 347 588T390 596Q435 596 457
574T469 511Q462 486 444 462T387 399Q347 360 323 335Q299 309 293 287Q289 270 289 222H273ZM253 104Q248 104 245 109L224 144Q221 147 223 152Q223 157 231 163L265 191Q271 196 276 196Q281 196 286 191L306 162Q309 156 308 152Q307 148 300 141L265 111Q258
104 253 104Z" />
<glyph unicode=" " glyph-name="space" horiz-adv-x="200" />
<glyph unicode="!" glyph-name="exclam" horiz-adv-x="188" d="M142 36Q139 20 124 8Q109 -4 93 -4Q77 -4 68 8Q58 19 63 36Q68 53 82 63Q95 75 113 75Q129 75 138 63Q147 51 142 36ZM136 138H124L213 681H314L136 138Z" />
<glyph unicode="&quot;" glyph-name="quotedbl" horiz-adv-x="259" d="M298 710Q284 660 217 620Q264 670 248 670Q232 670 223 682Q213 693 218 710Q222 726 237 738Q250 750 268 750Q284 750 293 738Q301 727 298 710ZM394 710Q380 660 313 620Q360 670 344
670Q328 670 319 682Q309 693 314 710Q318 726 333 738Q346 750 364 750Q380 750 389 738Q397 727 394 710Z" />
<glyph unicode="#" glyph-name="numbersign" horiz-adv-x="641" d="M499 431L580 605H614L533 431H705L691 398H518L469 291H641L626 258H453L373 85L339 84L419 258H313L233 85L199 84L279 258H105L122 291H295L344 398H170L185 431H359L440 605H474L393 431H499ZM378
398L329 291H435L484 398H378Z" />
<glyph unicode="$" glyph-name="dollar" horiz-adv-x="440" d="M194 2Q119 7 66 27Q62 28 58 28T50 28Q44 28 39 28T28 27Q23 26 19 26T11 24Q10 23 8 23L6 22H5L48 193V192Q49 189 49 184T52 169Q55 145 69 112Q82 79 111 52Q137 26 187 18L209 17L280 303Q274
307 268 310T255 318Q185 359 155 398Q126 435 125 467Q124 497 130 524Q139 558 168 595Q197 631 247 654Q295 677 368 682H375L388 736H417L403 680Q435 677 461 671T510 657Q520 655 527 655Q532 655 537 655T548 657Q553 658 557 658T564 660Q566 661 568 661L570
662H571L528 491Q528 491 527 492Q527 497 524 515Q522 527 518 541T507 572Q493 604 465 631Q439 655 399 664L339 421H340Q351 415 361 409T384 395Q439 359 465 326Q490 290 493 260Q496 227 489 200L481 172Q478 163 461 136Q446 111 411 78Q378 48 326 25Q287
8 234 3L220 -54H191L205 2H194ZM368 666Q323 662 279 634Q235 606 224 562Q221 550 222 541Q222 503 255 476Q267 466 281 456T313 436L371 666H368ZM239 21Q276 32 308 61Q355 104 367 155L369 162Q379 216 347 251Q338 260 328 269T305 287L239 21Z" />
<glyph unicode="%" glyph-name="percent" horiz-adv-x="633" d="M589 683L231 1H205L562 683H589ZM271 400Q241 400 221 410T189 440T175 484T179 539Q186 568 201 593T237 637T284 667T340 678Q370 678 390 667T422 638T436 594T431 539Q424 510 409 485T374
440T327 411T271 400ZM273 406Q311 406 339 442T383 539Q399 602 385 636T338 671Q303 671 273 635T228 539Q214 482 225 444T273 406ZM461 -1Q431 -1 411 9T379 39T365 83T369 138Q376 167 391 192T427 236T474 266T530 277Q560 277 580 266T612 237T626 193T621
138Q614 109 599 84T564 39T517 10T461 -1ZM463 5Q501 5 529 41T573 138Q589 201 575 235T528 270Q493 270 463 234T418 138Q404 81 415 43T463 5Z" />
<glyph unicode="&amp;" glyph-name="ampersand" horiz-adv-x="671" d="M-2232 0L-2305 117Q-2319 98 -2339 78T-2384 42T-2438 14T-2501 0H-2513Q-2548 0 -2579 10T-2633 41T-2666 95T-2672 174L-2667 200Q-2658 235 -2639 265T-2593 320T-2535 360T-2472 384L-2476
393Q-2485 407 -2489 434T-2488 491Q-2476 538 -2445 582T-2369 653L-2368 655H-2366Q-2335 674 -2293 681L-2276 682Q-2249 682 -2226 672T-2185 645T-2160 603T-2155 548L-2158 528Q-2165 500 -2180 475T-2215 428T-2258 391T-2306 369L-2247 274Q-2232 311 -2208
343T-2157 401T-2108 444T-2070 467L-2059 472L-2050 474Q-2043 474 -2037 468T-2023 445Q-2015 430 -2010 412T-2008 381Q-2011 366 -2027 362L-2069 357Q-2126 355 -2172 329T-2236 257L-2074 0H-2232ZM-2315 384Q-2284 394 -2264 426T-2234 494Q-2229 514 -2228
531Q-2227 550 -2230 569T-2241 606T-2262 635T-2296 650L-2312 652Q-2341 652 -2371 635T-2409 584L-2412 567Q-2411 555 -2407 542T-2397 518T-2385 496T-2374 479L-2315 384ZM-2437 67Q-2402 67 -2371 83T-2316 131L-2461 369Q-2497 345 -2518 309T-2547 239L-2553
200Q-2555 173 -2548 152T-2528 114T-2500 87T-2471 72L-2437 67Z" />
<glyph unicode="&apos;" glyph-name="quotesingle" horiz-adv-x="169" d="M299 714Q285 664 218 624Q265 674 249 674Q233 674 224 686Q214 697 219 714Q223 730 238 742Q251 754 269 754Q285 754 294 742Q302 731 299 714Z" />
<glyph unicode="(" glyph-name="parenleft" horiz-adv-x="280" d="M120 341Q154 477 234 602Q313 726 437 816H448Q333 695 269 591Q205 488 176 388Q168 361 162 335T150 283Q130 181 144 84Q156 -11 212 -133H200Q121 -43 104 81Q87 206 120 341Z" />
<glyph unicode=")" glyph-name="parenright" horiz-adv-x="280" d="M330 341Q296 206 216 81Q138 -43 14 -133H2Q116 -15 178 84Q239 179 271 283Q279 309 285 335T297 388Q318 487 306 591Q300 644 284 700T238 816H250Q329 726 346 602Q363 476 330 341Z" />
<glyph unicode="*" glyph-name="asterisk" horiz-adv-x="301" d="M214 684L240 716L313 650L214 684ZM202 591L313 650L220 564L202 591ZM419 716L429 684L313 650L419 716ZM313 650L394 591L363 564L313 650ZM322 760H359L313 650L322 760Z" />
<glyph unicode="+" glyph-name="plus" horiz-adv-x="438" d="M119 335L126 364H296L338 533L367 534L325 364H493L487 335H318L275 166H246L289 335H119Z" />
<glyph unicode="," glyph-name="comma" horiz-adv-x="162" d="M130 36Q116 -14 49 -54Q96 -4 80 -4Q64 -4 55 8Q45 19 50 36Q54 52 69 64Q82 76 100 76Q116 76 125 64Q133 53 130 36Z" />
<glyph unicode="-" glyph-name="hyphen" horiz-adv-x="438" d="M126 364H493L487 335H119L126 364Z" />
<glyph unicode="." glyph-name="period" horiz-adv-x="161" d="M129 36Q124 18 111 8Q96 -4 80 -4Q62 -4 55 8Q45 19 50 36Q55 53 68 63Q83 75 99 75Q116 75 124 63Q134 52 129 36Z" />
<glyph unicode="/" glyph-name="slash" horiz-adv-x="318" d="M435 731H465L51 -60H20L435 731V731Z" />
<glyph unicode="0" glyph-name="zero" horiz-adv-x="694" d="M347 0Q275 0 225 26T146 98T112 206T124 339Q142 410 178 472T266 579T380 651T516 678Q588 678 638 652T717 580T750 472T738 339Q720 268 684 206T597 98T483 26T347 0ZM351 16Q397 16 438 39T514
105T576 207T621 339Q640 416 640 476T625 577T580 639T512 661Q470 661 429 638T353 573T289 472T242 339Q225 270 223 211T235 109T278 41T351 16Z" />
<glyph unicode="1" glyph-name="one" horiz-adv-x="300" d="M39 0L40 3Q56 9 69 15Q80 20 90 27T102 42L247 623Q249 631 242 638T227 650Q217 656 204 661L205 664Q240 664 271 666T327 671Q355 674 380 678L220 33Q222 26 229 21T243 12Q251 8 261 3L260 0H39Z" />
<glyph unicode="2" glyph-name="two" horiz-adv-x="615" d="M44 0L113 107Q127 124 141 137T175 162T219 188T281 218Q324 237 365 259T442 309T507 372T557 451L570 488Q582 537 570 576T532 635Q512 652 490 658T444 664L422 661Q374 656 338 617T283 519Q281
510 278 499T270 479Q263 464 248 464Q234 464 219 474T189 496Q178 507 174 515T172 529L176 538Q177 542 179 544T183 548Q193 562 218 584T278 627T353 663T436 678H448Q482 678 508 675T556 664Q585 653 611 635T654 590T678 529T673 451Q656 384 616 346T521
282T399 237T264 190Q232 178 212 168T178 148T155 129T137 107H414Q461 107 501 128T570 177T617 229T638 263H640L551 0H44Z" />
<glyph unicode="3" glyph-name="three" horiz-adv-x="587" d="M267 0Q225 0 192 15T135 51T97 93T79 128L76 138L77 148Q79 155 86 162T111 180Q131 194 151 204T186 214Q201 214 201 199Q200 188 198 178T193 159Q181 96 201 57T271 15H283Q302 15 330 23T387
51T440 103T477 185Q487 224 482 255T464 309T433 345T396 363L335 368L410 372Q428 375 449 386T489 415T524 458T547 512L549 522Q557 569 551 597T529 641T495 661T457 666H431Q413 666 392 658T350 636T313 603T289 562Q287 554 285 547T279 531Q273 520 263
520Q253 520 242 528T221 545Q211 554 209 559T207 571L209 576L216 583Q232 600 254 617T305 647T367 669T436 678H462Q498 678 537 671T606 645T654 597T665 522L662 508Q653 473 635 448T591 406T536 378T474 365Q547 357 581 316T597 200L593 185Q579 137 542
102T459 45T363 11T277 0H267Z" />
<glyph unicode="4" glyph-name="four" horiz-adv-x="581" d="M296 0L297 3Q313 9 326 15Q337 20 347 27T359 42L406 234H98L517 677L633 678L527 251H604L600 234H523L475 42Q473 34 479 27T494 15Q504 9 517 3L516 0H296ZM510 648L134 251H411L510 648Z" />
<glyph unicode="5" glyph-name="five" horiz-adv-x="629" d="M262 0Q221 1 189 16T133 52T96 93T78 128L76 147Q78 155 86 162T112 180Q131 194 152 204T187 214Q201 214 200 199Q199 188 198 178T195 159Q183 96 202 58T271 17H278Q295 17 309 17T336 20T365
28T399 45Q444 71 470 111T511 211Q523 257 519 292T499 353T460 392T411 410L390 411Q340 411 289 397T181 351L162 342L277 678H736L692 413Q692 419 690 432T682 463T666 500T640 534T602 560T549 571H257L192 377Q245 404 295 417T391 430L414 429Q454 429
497 416T574 375T624 307T627 211Q616 166 594 132T541 73T476 32T403 7Q384 2 360 1T313 0H262Z" />
<glyph unicode="6" glyph-name="six" horiz-adv-x="596" d="M304 17Q329 17 367 32Q404 48 438 90Q474 134 493 214Q511 287 501 328Q490 368 465 388Q440 406 414 408L396 409Q361 409 319 395Q280 382 246 351L229 294Q200 178 223 98Q247 17 304 17ZM300 0Q266
0 224 14Q183 28 150 62Q118 95 105 153Q93 213 115 300L127 339Q176 492 269 583Q359 673 467 678H493Q568 675 609 647Q651 618 665 583L667 568Q664 559 641 543Q634 538 627 535T611 527Q597 520 587 520Q577 520 577 531L580 562Q588 608 558 636Q528 665
490 666H471Q413 659 353 574Q294 488 254 379Q290 403 331 416Q372 427 406 427Q425 427 444 425T485 419Q506 414 525 407T561 388Q594 367 611 323Q626 282 609 214Q591 139 541 92Q491 45 427 23Q361 0 300 0Z" />
<glyph unicode="7" glyph-name="seven" horiz-adv-x="565" d="M177 0Q199 91 234 176T325 336T459 470T646 571H365Q319 571 280 549T211 500T164 447T143 413L230 678H694L667 571Q608 540 561 497T475 404T408 300T357 192T320 90T295 0H177Z" />
<glyph unicode="8" glyph-name="eight" horiz-adv-x="594" d="M297 0Q249 0 206 11T132 46T89 106T88 193Q96 224 115 250T160 298T216 335T279 363Q259 380 243 398T216 436T202 479T205 528Q215 567 240 595T302 642T380 669T467 678Q510 678 548 669T612 640T650
593T653 528Q646 500 628 478T585 439T531 410T473 391Q501 368 527 345T573 298T600 248T602 193Q590 142 559 106T485 46T394 11T297 0ZM457 403Q486 417 509 447T546 528Q555 565 552 591T535 632T503 655T463 662Q441 662 419 658T378 645T345 620T326 583Q320
559 329 536T357 491T402 447T457 403ZM302 17Q327 17 355 23T409 44T453 80T481 136Q490 170 475 198T431 251T366 300T295 351Q261 329 235 291T195 193Q183 145 189 112T212 57T254 27T302 17Z" />
<glyph unicode="9" glyph-name="nine" horiz-adv-x="596" d="M461 661Q435 661 398 646Q361 629 327 588Q291 543 272 465Q254 390 265 350Q275 309 301 289Q327 269 354 268H364Q384 268 403 271T444 282Q484 295 520 327L535 383Q565 498 543 581Q520 661 461
661ZM465 678Q500 678 542 664Q584 650 615 616Q647 581 660 524Q672 464 650 376L638 337Q589 186 496 95Q406 5 299 0H272Q199 3 156 31Q113 59 100 95L98 110Q101 120 125 133Q133 138 140 142T155 150Q169 157 180 157Q190 157 191 147L185 116Q179 70 207
42Q236 12 274 10Q280 10 284 10T294 12Q354 19 413 105Q469 187 510 297Q475 271 435 261Q396 249 361 249H358Q322 249 280 258Q240 265 204 290Q170 312 155 355Q139 396 156 465Q174 539 224 587Q273 633 338 656Q401 678 465 678Z" />
<glyph unicode=":" glyph-name="colon" horiz-adv-x="161" d="M239 478Q236 462 221 450Q206 438 190 438Q174 438 165 450Q155 461 160 478Q165 495 179 505Q192 517 210 517Q226 517 235 505Q244 495 239 478ZM160 158Q155 140 141 130Q126 118 110 118Q94 118
85 130Q77 140 80 158Q85 175 99 185Q114 197 130 197Q146 197 155 185Q163 175 160 158Z" />
<glyph unicode=";" glyph-name="semicolon" horiz-adv-x="162" d="M160 159Q148 109 79 69Q127 119 111 119Q94 119 85 131Q76 141 81 159Q84 173 99 187Q114 199 130 199Q147 199 156 187Q164 174 160 159ZM239 478Q236 462 221 450Q206 438 190 438Q174 438
165 450Q155 461 160 478Q165 495 179 505Q192 517 210 517Q226 517 235 505Q244 495 239 478Z" />
<glyph unicode="&lt;" glyph-name="less" horiz-adv-x="228" d="M118 339L178 386L310 492L296 445L163 339L243 233L234 185L154 291L118 339Z" />
<glyph unicode="=" glyph-name="equal" horiz-adv-x="438" d="M137 410H504L498 381H130L137 410ZM107 289H474L468 260H100L107 289Z" />
<glyph unicode="&gt;" glyph-name="greater" horiz-adv-x="228" d="M80 185L95 233L226 339L146 445L156 492L236 386L271 339L212 291L80 185Z" />
<glyph unicode="?" glyph-name="question" horiz-adv-x="540" d="M312 139V140Q322 180 332 212T355 272T385 321T428 364Q483 407 511 444T549 517Q553 532 553 552Q553 573 545 593T523 629T492 655T455 665Q450 665 445 665T436 664Q410 661 386 652T341 631T303
603T270 571Q236 534 209 488L252 662Q257 654 266 652T286 650Q297 651 310 655Q339 664 376 672T450 681H457Q529 681 579 657T647 595Q658 573 661 546T657 491Q651 467 639 448Q623 423 601 403T551 365T495 331T434 295Q404 278 383 252T349 200Q333 171 324
139H312ZM332 40Q329 24 314 12Q299 0 283 0Q267 0 258 12Q248 23 253 40Q258 57 272 67Q285 79 303 79Q319 79 328 67Q337 55 332 40Z" />
<glyph unicode="@" glyph-name="at" horiz-adv-x="750" d="M381 0Q310 0 255 27T166 100T120 208T127 341Q144 410 185 471T282 578T405 651T541 681H549Q616 679 669 652T755 580T799 474T794 344L793 341Q786 318 776 297T750 256Q716 216 671 189L649 179Q644
177 638 176T627 172Q598 161 573 154T528 146Q517 146 510 150Q498 156 499 172T504 205L506 210Q460 177 423 164T359 150Q336 150 320 157T294 174Q285 182 280 198T280 238Q281 243 283 248T287 258Q302 293 335 318T417 360Q467 375 502 385T555 413Q562 471
548 496T509 521Q480 521 457 497T421 437Q419 431 418 425T413 413Q410 404 400 404Q392 404 383 409T366 423Q358 431 356 435T355 444L357 449L362 454Q368 463 384 476T421 501T468 523T520 532Q586 532 609 485T614 361L595 286Q588 260 584 243T578 215Q575
203 574 196Q572 186 579 182T597 178L608 179Q623 183 637 189T664 203Q692 221 715 254T753 344Q766 399 761 456T731 561T658 638T541 669Q470 668 408 638T298 560T216 455T168 341Q154 285 157 227T185 121T258 43T384 12Q416 12 458 19T550 50L549 40Q467
0 381 0ZM403 176Q417 176 437 182Q446 185 456 190T477 202T496 215T510 225L544 363Q546 372 548 381T551 399Q541 391 524 385T482 370Q437 354 405 324T357 255L353 244Q347 218 359 197T403 176Z" />
<glyph unicode="A" glyph-name="A" horiz-adv-x="623" d="M384 -1V2Q402 8 417 14Q430 19 441 26T454 42L455 43Q456 50 455 64L434 230H220L93 38L91 33Q89 25 93 20T103 11Q109 7 119 3L118 -1H0L1 3Q17 7 32 13Q45 18 57 24T77 39L208 236L209 242H211L501
679L569 154L583 42Q584 34 590 27T604 14Q613 7 623 2V-1H384ZM399 499L228 242H432L399 499Z" />
<glyph unicode="B" glyph-name="B" horiz-adv-x="538" d="M0 -1L1 3Q17 9 30 15Q41 20 50 27T62 42L210 636Q212 644 206 651T191 664Q181 670 168 676L169 679H436Q553 679 600 632T628 506Q614 453 570 409T451 346Q534 333 566 287T581 173Q573 139 551 108T494
52T412 14T308 -1H0ZM274 14Q313 14 345 27T401 63T440 113T464 173Q474 211 474 241T461 292T421 324T349 335H252L172 14H274ZM322 351Q361 351 393 365T449 403T489 453T511 506Q519 537 519 566T506 616T467 651T395 664H334L256 351H322Z" />
<glyph unicode="C" glyph-name="C" horiz-adv-x="555" d="M327 -1Q254 -1 201 25T116 97T76 205T85 339Q102 409 140 469T231 576T348 649T484 679H496Q538 679 572 664T630 628T668 585T686 549Q687 547 687 545T688 540Q688 533 687 530Q685 523 678 516T652
497Q633 485 612 475T577 465Q563 465 563 479Q565 489 566 499T570 520Q582 582 563 621T493 663L492 664Q451 664 408 642T327 582T258 490T212 374L209 359Q194 290 202 240T232 155T281 103T334 79Q365 72 400 72Q453 72 501 87T585 126L581 110Q568 98 544
80T486 43T412 12T327 -1Z" />
<glyph unicode="D" glyph-name="D" horiz-adv-x="584" d="M0 -1L1 3Q17 9 30 15Q41 20 50 27T62 42L90 154L92 155L183 521Q182 522 183 525L211 636Q213 644 207 651T192 664Q182 670 169 676V679H446Q522 679 572 651T650 576T681 468T669 339Q652 272 616 211T528
102T414 27T278 -1H0ZM253 14Q315 14 365 47T452 129T515 234T552 339Q567 399 572 457T566 561T519 635T417 664H336L174 14H253Z" />
<glyph unicode="E" glyph-name="E" horiz-adv-x="484" d="M416 279L415 280V282V287Q414 291 414 296T411 306Q408 315 403 324Q397 331 390 331H252L172 14H301Q350 14 388 36Q426 56 458 86Q487 114 505 139Q523 163 526 173H527L470 -1H0L1 2H2Q2 3 4 3Q5 4
6 4T9 5Q13 7 18 9T28 14Q40 18 49 26Q57 31 62 40L211 636Q212 643 206 651Q201 657 191 664Q187 666 183 668T176 673Q173 673 171 675H170L169 676V679H639L610 505H609Q611 516 605 540Q599 565 584 593Q570 619 540 643Q510 664 464 664H335L256 347H394Q401
347 411 355Q419 361 427 373Q434 382 440 391Q442 393 442 394T444 396Q444 397 445 398V399H449L420 279H416Z" />
<glyph unicode="F" glyph-name="F" horiz-adv-x="486" d="M394 347Q401 347 411 355Q419 361 427 373Q434 382 440 391Q442 393 442 394T444 396Q444 397 445 398V399H449L420 279H416V280Q415 281 415 282V287Q414 291 414 296T411 306Q408 315 403 324Q397 331
390 331H252L179 39Q179 32 185 25Q192 17 199 13Q204 11 207 9T215 5L219 3Q220 3 221 2V-1H0L1 2H2Q2 3 4 3Q5 4 6 4T9 5Q12 6 18 8L28 14Q40 18 49 26Q57 31 62 40L211 639Q211 645 205 653Q201 656 198 659T190 664Q186 666 183 668T175 672Q171 674 171 674Q170
674 169 675H168L169 679H639L610 505H609Q611 516 605 540Q599 565 584 593Q570 619 540 643Q510 664 464 664H335L256 347H394Z" />
<glyph unicode="G" glyph-name="G" horiz-adv-x="626" d="M574 0Q565 12 554 22Q544 30 532 37T502 44Q489 44 473 38Q469 36 466 34Q436 20 401 10T326 0Q254 0 201 26T116 98T76 206T85 340Q102 410 140 471T231 578T349 651T485 680H497Q539 680 572 665T630
629T668 586T686 550Q688 544 688 541Q688 534 687 531Q685 524 678 517T652 498Q633 486 612 476T577 466Q563 466 564 480Q565 490 566 500T570 521Q582 583 563 623T494 665H492Q452 665 409 644T327 584T257 493T210 376L204 350Q193 293 201 243T231 153T283
86T348 46Q362 41 375 38T401 35Q430 35 453 55T490 128L523 265Q525 273 519 280T504 293Q494 299 481 305L482 308H703L702 305Q686 299 674 293Q663 288 653 281T640 266L574 0V0Z" />
<glyph unicode="H" glyph-name="H" horiz-adv-x="612" d="M391 -1L392 3Q408 9 421 15Q432 20 442 27T454 42L526 332H251L179 42Q177 34 183 27T198 15Q208 9 221 3L220 -1H0V3Q16 9 29 15Q40 20 50 27T62 42L210 636Q212 644 206 651T191 664Q181 670 168 676L169
679H390L389 676Q373 670 360 664Q349 659 339 652T327 636L255 347H530L602 636Q604 644 598 651T583 664Q573 670 560 676L561 679H782L781 676Q765 670 752 664Q741 659 731 652T719 636L571 42Q569 34 575 27T590 15Q600 9 613 3L612 -1H391Z" />
<glyph unicode="I" glyph-name="I" horiz-adv-x="221" d="M-1 -1L0 2Q15 7 27 13Q38 18 48 24T61 39L211 638Q211 646 205 652T190 664Q180 670 168 675L169 679H390L389 675Q374 670 362 664Q351 659 341 653T328 638L179 39Q178 31 184 25T199 13Q209 7 221
2L220 -1H-1Z" />
<glyph unicode="J" glyph-name="J" horiz-adv-x="531" d="M560 327L549 280Q513 134 432 68Q354 2 240 0H228Q171 0 131 25Q91 50 67 80Q55 95 48 107T38 130Q37 133 37 139Q35 144 37 149Q38 155 47 164Q51 168 57 172T72 182Q83 189 92 194T113 205Q134 214
147 214Q161 214 161 200L156 164L155 159Q143 96 163 58Q182 19 231 16H238Q285 16 331 54Q369 85 390 139Q400 165 411 203T435 293L521 638Q522 645 516 653Q510 661 502 666Q497 668 494 670T486 674Q482 676 482 676Q480 676 480 677H479L480 680H700L699
677H698Q697 676 696 676Q694 675 693 675T690 674Q685 672 680 670T669 666Q664 663 659 660T648 653Q638 645 637 638L560 327Z" />
<glyph unicode="K" glyph-name="K" horiz-adv-x="592" d="M454 -1V0H402Q416 57 419 113T415 216T386 297T334 343L233 255L179 42Q177 34 183 27T198 14Q208 8 221 2V-1H0V2Q17 8 30 14Q41 19 51 26T63 42L212 636Q214 644 208 651T192 663Q181 669 168 675L169
679H390L389 675Q373 669 360 663Q349 658 340 651T328 636L239 281L649 639Q656 645 658 653Q660 662 653 669Q649 673 645 675L646 679H761L760 675Q743 670 727 665Q713 660 698 653T671 638L346 354Q348 354 349 353Q366 349 392 339T445 310Q460 300 482 282T521
232T547 154T545 42V39Q544 31 550 25T565 13Q575 7 587 2V-1H454Z" />
<glyph unicode="L" glyph-name="L" horiz-adv-x="485" d="M1 0V4Q17 10 30 16Q41 21 51 28T63 43L91 155L211 637Q213 645 207 652T192 665Q182 671 169 677L170 680H381L380 677Q366 672 354 667Q343 662 334 656T320 642L164 15H303V16Q349 16 389 37T458 86T506
140T527 174H528L471 0H1Z" />
<glyph unicode="M" glyph-name="M" horiz-adv-x="739" d="M77 41Q77 32 82 26Q88 18 97 14Q102 12 105 10T113 6Q115 5 117 3H119V2V-1H0L1 2L2 3H4L9 6Q14 8 19 10T29 14Q35 16 40 19T51 27Q61 35 62 42L211 637Q211 646 206 652Q200 659 192 664L176 672Q174
673 173 673T171 674Q170 674 169 675H168L169 679H338L403 187L739 679H908L907 675H906Q905 674 904 674Q903 673 902 673T899 672Q894 670 889 668T878 664Q873 661 868 658T857 651Q847 643 846 636L697 41Q695 33 701 26Q708 18 716 14L732 6L737 3H738L739
2V-1H518L519 2L520 3H522L527 6Q532 8 537 10T547 14Q553 16 558 19T569 27Q579 35 580 42L732 648L301 -1L221 618L77 41V41Z" />
<glyph unicode="N" glyph-name="N" horiz-adv-x="584" d="M1 2L2 3H4L9 6Q14 8 19 10T29 14Q35 16 40 19T51 27Q61 35 62 42L211 636Q212 643 206 651Q201 657 191 664Q187 666 183 668T176 672Q174 673 173 673T171 674Q170 674 169 675H168L169 679H345L568
205L676 636Q676 645 671 651Q666 657 656 664Q651 666 648 668T640 672Q636 674 636 674Q635 674 634 675H633L634 679H753L752 675H751Q750 674 749 674Q748 673 747 673T744 672Q739 670 734 668T723 664Q718 661 713 658T702 651Q692 643 691 636L532 -1H517L518
4L224 629L77 41Q77 32 82 26Q88 18 97 14Q102 12 105 10T113 6Q115 5 117 3H119V2V-1H0L1 2Z" />
<glyph unicode="O" glyph-name="O" horiz-adv-x="653" d="M326 -1Q253 -1 200 25T115 97T75 205T84 339Q102 411 141 473T235 580T356 652T496 679Q568 679 621 653T706 581T746 473T737 339Q719 267 680 205T587 98T466 26T326 -1ZM364 13Q377 13 391 16Q469
30 526 99T610 272Q617 297 620 323T626 378Q630 448 618 501T581 591T524 645T455 664Q449 664 443 664T430 662Q395 656 362 634T299 578T247 498T211 399Q199 352 196 300Q192 237 203 185T236 94T291 35T364 13Z" />
<glyph unicode="P" glyph-name="P" horiz-adv-x="539" d="M0 -3L1 1Q17 7 30 13Q41 18 51 25T63 40L211 634Q213 642 206 649T191 662Q181 668 168 674L169 677H473Q531 677 570 660T632 613T660 547T656 469Q647 436 624 401T565 337T482 290T376 271H227L169
37Q168 29 175 23T190 11Q200 5 212 1L211 -3H0ZM343 286Q382 286 414 302T471 343T513 402T539 469Q550 513 551 548T541 609T503 648T431 662H325L231 286H343Z" />
<glyph unicode="Q" glyph-name="Q" horiz-adv-x="653" d="M448 -114Q428 -114 408 -109T363 -89Q349 -81 337 -72T313 -54T291 -41T270 -35H266Q238 -39 222 -51T203 -65Q217 -51 237 -33T280 -7Q288 -5 295 -3T310 0Q241 3 191 30T112 104T75 210T85 340Q103
412 142 474T236 581T357 653T497 680Q569 680 622 654T707 582T747 474T738 340Q721 271 684 211T594 104T477 31T343 0Q357 -2 373 -8T407 -29Q429 -46 454 -57T504 -68Q509 -68 514 -68T525 -66Q542 -62 555 -56T577 -44Q588 -37 595 -29Q588 -38 579 -48T558
-69T532 -89T503 -104Q489 -109 476 -111T448 -114ZM365 15Q372 15 378 15T391 17Q469 31 526 100T610 273Q617 298 620 324T626 379Q630 449 618 502T582 592T525 646T456 665Q450 665 444 665T431 663Q395 657 362 635T299 579T247 499T211 400Q199 353 196 301Q192
238 203 186T236 95T292 36T365 15Z" />
<glyph unicode="R" glyph-name="R" horiz-adv-x="600" d="M466 -1L414 0Q428 57 424 106T404 192T361 248T304 269H237L180 41Q178 33 184 26T199 14Q209 8 222 2L221 -1H0L1 2Q17 8 30 14Q41 19 51 26T63 42L211 636Q213 644 207 651T192 663Q182 669 169 675L170
679H496Q554 679 593 662T655 615T683 549T679 471Q671 441 652 409T602 349T533 300T445 272L446 273Q467 273 491 261T534 222T561 150T558 39Q557 31 563 25T578 13Q588 7 600 2L599 -1H466ZM365 284Q405 284 437 300T495 343T537 403T563 471Q574 515 575 550T565
611T527 650T455 664H335L240 284H365Z" />
<glyph unicode="S" glyph-name="S" horiz-adv-x="440" d="M194 -1Q158 0 125 7T66 24Q62 25 58 25T49 25Q41 25 33 24T19 22Q12 20 5 19L48 191Q52 146 69 109Q76 93 86 78T110 49T144 27T187 15L210 14Q235 14 260 26T307 57T345 101T367 152L369 159Q374 187
368 208T347 248T308 282T255 315Q200 347 172 376T133 431T123 479T130 521Q136 547 154 574T201 624T272 662T367 679H381Q418 678 451 671T510 654Q514 653 518 653T526 653Q544 653 556 656Q563 657 570 659L527 487Q522 532 506 569Q499 585 489 600T464 629T431
651T388 663L380 664L375 663H367Q346 661 323 653T280 632T244 600T224 559Q221 548 221 538Q221 515 234 497T269 462T321 429T384 392Q427 366 450 340T484 290T495 242T489 198L480 169Q477 160 461 133T411 76T326 23T201 -1H194Z" />
<glyph unicode="T" glyph-name="T" horiz-adv-x="574" d="M177 -1V3Q193 9 206 15Q217 20 227 27T239 42L394 664H345Q300 662 262 640T195 591T149 539T128 506H126L183 676L184 679H729L700 506H699Q700 514 695 539T675 591T633 640T561 664H511L356 42Q354
34 360 27T375 15Q385 9 398 3V-1H177Z" />
<glyph unicode="U" glyph-name="U" horiz-adv-x="601" d="M769 676H768Q768 675 766 675Q765 674 764 674T761 673Q756 671 751 669T741 665Q727 658 720 652Q709 644 708 637L614 262Q604 220 588 185T548 120Q501 61 441 30Q382 -1 315 -1H308Q232 -1 183 32Q133
66 120 140Q105 213 137 339L211 639Q212 646 206 654Q200 661 191 666Q186 668 183 670T176 674Q174 675 173 675T171 676Q171 676 170 677H169L170 681H391L389 677H388Q388 676 386 676Q385 675 384 675T381 674Q376 672 372 670T361 666Q347 659 340 653Q329
645 328 638L245 305Q214 181 242 108Q269 35 344 29H354Q404 29 452 56Q502 83 541 136Q581 188 599 262L693 637Q693 646 688 652Q685 656 682 659T674 665Q669 667 666 669T658 673Q656 674 655 674T653 675Q653 675 652 676H651V679H770L769 676Z" />
<glyph unicode="V" glyph-name="V" horiz-adv-x="625" d="M208 642Q205 649 199 654T185 665Q177 670 168 675L169 679H412L411 675Q392 669 377 663Q364 658 353 651T340 636L339 635Q337 624 340 601T347 537L393 187L704 641V643Q706 651 702 656T692 666Q686
670 677 675L678 679H794L793 675Q774 670 758 664Q744 659 732 652T715 636L291 -1L208 642Z" />
<glyph unicode="W" glyph-name="W" horiz-adv-x="1001" d="M607 474L291 -1L208 642Q205 649 199 654T185 665Q177 670 168 675L169 679H412L411 675Q392 669 377 663Q364 658 353 651T340 636L339 635Q337 624 340 601T348 537L393 187L604 495L585 642Q582 649
575 654T561 665Q553 670 544 675L545 679H788L787 675Q769 669 754 663Q741 658 730 651T717 636L716 635Q714 624 717 601T724 537L770 187L1081 642Q1083 650 1079 655T1069 666Q1063 671 1054 675L1055 679H1170L1169 675Q1151 670 1135 664Q1121 659 1109
652T1091 636L668 -1L607 474Z" />
<glyph unicode="X" glyph-name="X" horiz-adv-x="622" d="M361 0L362 4Q378 10 391 16Q402 21 412 28T424 43V44Q425 53 421 71L348 282L104 35Q101 32 101 28Q99 17 109 10Q113 6 121 4L120 0H0L1 4Q18 8 34 13Q48 18 62 24T86 38L343 296L253 560Q245 581 236
605T222 637Q219 644 213 651T198 664Q189 671 180 677L181 680H429L428 677Q412 671 399 665Q388 660 378 653T366 637V636Q363 629 368 613L443 398L686 643Q690 649 690 652Q692 658 689 663T682 671Q678 675 671 677L672 680H792L791 677Q775 673 759 668Q745
663 731 658T707 644L447 383L567 43Q569 36 576 29T591 17Q600 10 609 4L608 0H361Z" />
<glyph unicode="Y" glyph-name="Y" horiz-adv-x="622" d="M191 0L192 4Q208 10 221 16Q232 21 242 28T254 43L323 321L237 573Q229 593 222 611T211 637Q208 644 202 651T187 664Q178 671 169 677L170 680H418L417 677Q401 671 388 665Q377 660 367 653T355 637V636Q354
633 354 625L436 386L692 644L695 652Q697 658 694 663T687 671Q683 675 676 677L677 680H792L791 677Q774 673 758 668Q744 663 730 657T705 642L458 393L371 43Q369 35 375 28T390 16Q400 10 413 4L412 0H191Z" />
<glyph unicode="Z" glyph-name="Z" horiz-adv-x="492" d="M0 0L511 665H352Q305 665 266 644T196 595T148 541T127 507H126L183 677H187L188 680H654L146 15H310Q356 15 396 36T465 86T513 140T534 174H535L478 0H0Z" />
<glyph unicode="[" glyph-name="bracketleft" horiz-adv-x="189" d="M74 -143Q20 -143 23 -71Q24 -43 47 47L60 95Q66 118 81 177T120 333Q144 429 158 488T178 570L190 619Q201 664 209 693T225 736Q255 802 318 802Q335 802 350 798Q350 795 320 776Q289 756
272 720Q267 709 262 695T252 661L231 577Q226 552 211 492T172 333Q148 235 133 174T109 88L88 5Q79 -33 79 -54Q75 -115 121 -133Q107 -138 96 -140T74 -143Z" />
<glyph unicode="\" glyph-name="backslash" horiz-adv-x="318" d="M268 -60H237L217 731H248L268 -60Z" />
<glyph unicode="]" glyph-name="bracketright" horiz-adv-x="189" d="M45 -143Q34 -143 24 -141T2 -133Q57 -115 84 -54Q89 -43 94 -29T104 5L124 88Q129 113 144 174T184 333Q208 431 223 491T246 577L267 661Q272 680 274 694T277 720Q277 756 257 776Q237 795
237 798Q247 800 255 801T272 802Q333 802 332 736Q330 707 308 619L296 570Q282 523 236 333Q212 237 197 178T177 95L166 47Q155 2 146 -27T131 -71Q98 -143 45 -143Z" />
<glyph unicode="^" glyph-name="asciicircum" horiz-adv-x="368" d="M449 527L342 632L182 527H173L364 722L457 527H449Z" />
<glyph unicode="_" glyph-name="underscore" horiz-adv-x="541" d="M33 -10H502L496 -39H25L33 -10Z" />
<glyph unicode="`" glyph-name="grave" horiz-adv-x="500" d="M368 681L480 526L310 625L368 681Z" />
<glyph unicode="a" glyph-name="a" horiz-adv-x="411" d="M293 71Q238 31 195 16T118 0Q92 0 73 8T43 27Q32 38 26 57T26 105Q28 110 29 116T34 128Q70 209 188 247Q246 265 287 277T349 309Q358 378 342 407T296 437Q261 437 234 409T193 338Q191 331 189 324T183
309Q179 299 169 299Q159 299 148 306T127 322Q112 337 115 345L118 352Q120 356 122 358Q130 368 148 383T192 413T247 438T309 449Q348 449 375 435T416 394T431 331T421 250L373 55Q371 47 377 41T392 29Q402 23 415 18L414 14Q379 14 353 12T310 7Q290 3 275
0L293 71ZM171 30Q190 30 211 37Q222 41 234 47T259 61T281 76T297 88L337 250Q343 275 346 294Q335 284 314 276T265 259Q230 247 204 231T160 197T131 159T116 123Q106 84 119 57T171 30Z" />
<glyph unicode="b" glyph-name="b" horiz-adv-x="446" d="M256 0Q211 0 183 14T142 40L52 0L209 630Q211 638 205 645T190 657Q180 663 167 668V671Q202 671 227 673T271 678Q291 681 307 685L242 426Q262 436 286 444T335 452H340Q380 452 411 441T463 410Q519
359 510 269Q509 260 508 250T503 229Q499 214 495 200T484 172Q470 140 449 111T401 58T343 19T276 1L256 0ZM240 17Q248 17 257 18T277 22Q293 26 312 40T349 77T384 133T413 210L421 241Q430 286 428 323T413 386T381 426T336 440Q311 440 285 426T232 385L150
56Q159 43 182 30T240 17Z" />
<glyph unicode="c" glyph-name="c" horiz-adv-x="388" d="M217 1Q171 1 136 17T79 64T51 135T57 227Q70 281 99 323T167 393T248 437T333 452Q364 452 389 442T432 416T460 386T474 360L475 354V347Q473 342 468 337T450 324Q436 316 422 309T398 302Q388 302
388 312Q389 319 390 326T393 340Q401 383 387 410T339 440H335Q330 440 327 440T318 439Q290 435 263 419T213 377T173 319T146 249L141 223Q136 189 141 161T158 111T191 75T236 54Q251 50 270 50Q307 50 344 68T418 119Q402 96 380 75T331 37T275 11T218 1H217Z"
/>
<glyph unicode="d" glyph-name="d" horiz-adv-x="447" d="M323 53Q314 46 301 37T270 20T231 6T185 0L170 1Q136 4 112 19T73 57T52 109T48 171Q48 193 54 219L57 229Q60 240 63 249T70 269Q89 313 118 349T186 410Q218 430 254 441T331 452H336Q361 452 380 444T416
425L467 630Q469 638 463 645T448 657Q438 663 425 668V671Q460 671 486 673T530 678Q550 681 565 685L434 161Q426 130 422 110T414 78Q410 64 409 55Q407 47 413 41T428 29Q438 23 451 18L450 14Q380 14 346 7T310 0L323 53ZM207 18Q225 18 243 24T278 38T307
55T328 72L406 385Q381 440 330 440Q305 440 278 426T226 386T180 323T145 241L137 210Q126 166 126 133T133 77T152 40T179 22Q191 18 207 18Z" />
<glyph unicode="e" glyph-name="e" horiz-adv-x="404" d="M217 1Q171 1 136 17T79 64T51 135T57 227Q70 281 98 322T164 392T245 436T330 451H339L340 452Q381 452 409 438T453 402T474 350T474 289Q473 283 473 278T471 268Q470 263 469 259H149L146 248L141
223Q130 155 158 111T236 54Q251 50 269 50Q306 50 343 68T418 119Q402 96 380 75T331 37T275 11T218 1H217ZM382 271Q390 308 391 339T386 392T368 427T337 440Q330 440 328 440T318 439Q292 435 267 421T220 384T181 333T152 271H382Z" />
<glyph unicode="f" glyph-name="f" horiz-adv-x="381" d="M0 0L1 4Q16 9 28 15Q39 20 48 26T61 40L161 440H110L113 452H164L171 481Q182 525 201 562T248 625T310 666T383 681Q414 681 439 671T482 646T510 616T524 590L525 583V577Q523 572 518 567T501 553Q487
545 473 538T449 531Q438 531 439 541Q439 548 440 555T443 569Q451 612 438 640T390 669Q355 669 319 626T256 482L249 452H343L340 440H246L147 43Q145 35 151 28T166 16Q176 10 189 4L188 0H0Z" />
<glyph unicode="g" glyph-name="g" horiz-adv-x="434" d="M112 -186Q69 -186 38 -176T-6 -156L-11 -150Q-17 -144 -15 -135Q-12 -124 2 -106Q13 -91 26 -76T51 -54Q31 -49 15 -36T1 -1L3 11Q15 60 94 91L130 102Q91 125 77 168T77 267L78 270Q88 308 109 341T160
399T226 438T305 452H307Q328 451 346 447T379 435Q397 459 418 478T461 511T500 533T528 543Q531 544 536 544H538Q545 544 548 539T554 520Q555 509 555 498T553 477Q548 460 536 460H535Q528 460 521 461T508 465Q491 468 476 468Q450 468 427 459T389 430Q426
407 438 365T437 268L436 265Q426 227 405 194T355 136T290 97T211 83H209Q172 85 147 95Q123 89 106 84T86 76Q69 69 56 61T41 42L40 37Q42 28 57 25T97 21Q126 21 162 23T234 26Q261 26 285 24T327 14Q334 11 343 6T360 -7T372 -28T373 -59L372 -66Q366 -89 350
-106T308 -137T249 -160T176 -178Q174 -179 172 -179T169 -180Q139 -186 112 -186ZM182 -163Q188 -163 193 -163T205 -161Q206 -160 208 -160L231 -154Q259 -146 286 -133T319 -105L321 -100Q324 -87 317 -80T296 -68T261 -63T217 -61L135 -62Q100 -62 72 -59Q76
-65 79 -72T84 -87Q98 -125 123 -144T182 -163ZM215 95Q237 95 258 110T298 150T329 206T351 267Q359 301 360 332T355 388T335 426T301 440Q280 440 258 425T218 386T184 330T161 268Q153 234 153 203T159 147T180 109T215 95Z" />
<glyph unicode="h" glyph-name="h" horiz-adv-x="494" d="M306 0L307 4Q323 10 336 16Q347 21 357 28T369 43L421 252Q433 303 433 336T423 390T399 419T367 429H361Q342 429 323 421T285 402T251 378T224 354L147 43Q145 35 151 28T166 16Q176 10 189 4L188 0H0L1
4Q17 10 30 16Q41 21 51 28T63 43L209 630Q211 638 205 645T190 657Q180 663 167 668V671Q202 671 228 673T272 678Q292 681 307 685L229 373Q239 382 256 395T295 421T342 443T393 452Q432 452 458 438T499 397T514 333T505 251L453 43Q451 35 457 28T472 16Q482
10 495 4L494 0H306Z" />
<glyph unicode="i" glyph-name="i" horiz-adv-x="188" d="M0 0L1 4Q17 10 30 16Q41 21 51 28T63 43L154 411Q156 419 150 425T135 437Q125 443 112 448L113 452Q148 452 174 454T217 459Q237 462 252 466L147 43Q145 35 151 28T166 16Q176 10 189 4L188 0H0ZM223
517Q200 517 189 532T183 571Q188 593 207 608T250 624Q272 624 283 609T290 571Q285 548 266 533T223 517Z" />
<glyph unicode="j" glyph-name="j" horiz-adv-x="331" d="M110 -227Q79 -227 55 -217T12 -192T-16 -162T-30 -136Q-30 -134 -30 -133T-30 -130V-123Q-29 -114 -6 -100Q8 -92 22 -85T47 -77Q57 -77 56 -87Q55 -100 51 -116Q43 -158 56 -185T102 -215Q137 -214 169
-171T227 -27L336 411Q338 419 332 425T317 437Q307 443 294 448L295 452Q330 452 356 454T399 459Q419 462 434 466L312 -26Q301 -71 283 -108T240 -171T183 -212T112 -227H110ZM406 517Q383 517 372 532T366 571Q371 593 390 608T433 624Q456 624 467 609T473
571Q468 548 449 533T406 517Z" />
<glyph unicode="k" glyph-name="k" horiz-adv-x="458" d="M371 0Q368 0 366 1H326L253 240L183 188L147 43Q145 35 151 28T166 16Q176 10 189 4L188 0H0L1 4Q17 10 30 16Q41 21 51 28T63 43L64 45L184 525H183L209 630Q211 638 205 645T190 657Q180 663 167 668V671Q202
671 228 673T272 678Q292 681 307 685L187 206L444 397Q451 403 455 412Q457 419 454 425T446 437Q441 443 435 448L436 452H571L570 448Q552 442 532 433Q515 425 492 413T442 382L330 298L404 64Q412 45 420 34T436 15Q445 7 454 4L453 0H371Z" />
<glyph unicode="l" glyph-name="l" horiz-adv-x="188" d="M0 0L1 4Q17 10 30 16Q41 21 51 28T63 43L209 630Q211 638 204 645T189 657Q179 663 166 668L167 671Q202 671 228 673T272 678Q292 681 307 685L147 43Q145 35 151 28T166 16Q176 10 189 4L188 0H0Z" />
<glyph unicode="m" glyph-name="m" horiz-adv-x="774" d="M586 0L587 4Q603 10 616 16Q627 21 637 28T649 43L650 45L701 252Q713 303 713 336T703 390T679 419T647 429H642Q624 429 606 422T571 405T538 382T511 359Q520 315 504 251L452 43Q450 35 456 28T471
16Q481 10 495 4L494 0H305L306 4Q322 10 335 16Q346 21 356 28T368 43L369 45L420 252Q432 303 432 336T422 390T398 419T366 429H360Q341 429 322 421T284 402T251 378T224 354L147 43Q145 35 151 28T166 16Q176 10 189 4L188 0H0L1 4Q17 10 30 16Q41 21 51 28T63
43L154 411Q156 419 150 425T135 437Q125 443 112 448L113 452Q148 452 174 454T217 459Q237 462 252 466L229 373Q239 382 256 395T295 421T342 443T393 452Q441 452 469 431T509 371Q519 380 535 394T574 421T621 443T674 452Q713 452 739 438T779 397T794 333T785
251L733 43Q731 35 737 28T752 16Q762 10 775 4L774 0H586Z" />
<glyph unicode="n" glyph-name="n" horiz-adv-x="494" d="M306 0L307 4Q323 10 336 16Q347 21 357 28T369 43L421 252Q433 303 433 336T423 390T399 419T366 429H360Q341 429 322 421T284 402T251 378T224 354L147 43Q145 35 151 28T166 16Q176 10 189 4L188 0H0L1
4Q17 10 30 16Q41 21 51 28T63 43L154 411Q156 419 150 425T135 437Q125 443 112 448L113 452Q148 452 174 454T217 459Q237 462 252 466L229 373Q239 382 256 395T295 421T342 443T393 452Q432 452 458 438T499 397T514 333T505 251L453 43Q451 35 457 28T472
16Q482 10 495 4L494 0H306Z" />
<glyph unicode="o" glyph-name="o" horiz-adv-x="440" d="M216 0Q165 1 130 18T74 66T49 136T56 224L57 229Q69 276 94 316T156 387T237 434T333 452H337Q388 451 423 434T479 386T504 315T497 228L496 223Q483 176 458 135T396 64T316 17T220 0H216ZM257 15Q281
18 303 32T344 69T379 122T403 189Q406 203 408 217T413 247Q417 292 410 327T389 387T353 425T308 439L296 438Q273 435 251 421T209 383T173 328T148 260Q142 235 139 205Q135 160 141 125T162 65T198 27T243 14L257 15Z" />
<glyph unicode="p" glyph-name="p" horiz-adv-x="449" d="M-55 -219L-54 -216Q-38 -210 -25 -204Q-14 -199 -4 -192T8 -177L9 -175L129 305H128L154 410Q156 418 150 425T135 437Q125 443 112 448L113 452Q148 452 174 454T217 459Q237 462 252 466L242 424Q263
435 288 443T338 452H343Q383 452 414 441T466 410Q522 359 513 269Q512 260 511 250T506 229Q502 214 498 200T487 172Q473 140 452 111T404 58T346 19T279 1L261 0Q216 0 188 13T146 39L92 -177Q90 -185 96 -192T111 -204Q121 -210 134 -216L133 -219H-55ZM243
17Q252 17 261 18T280 22Q296 26 315 40T352 77T387 133T416 210L424 241Q433 286 431 323T416 386T384 426T339 440Q313 440 285 425T231 382L150 58Q159 45 183 31T243 17Z" />
<glyph unicode="q" glyph-name="q" horiz-adv-x="449" d="M206 -219L207 -216Q223 -210 236 -204Q247 -199 257 -192T269 -177L323 39Q303 27 269 14T191 0L171 1Q137 4 113 19T74 57T53 110T48 172Q48 186 50 200T57 229Q61 240 63 250T70 269Q89 314 118 349T187
410Q219 430 255 441T332 452H337Q362 452 382 444T419 424L510 452L353 -177Q351 -185 357 -192T372 -204Q382 -210 395 -216L394 -219H206ZM214 17Q232 17 249 21T281 31T307 45T327 58L408 382Q383 440 331 440Q306 440 279 426T226 386T180 323T145 241L137
210Q127 166 127 133T133 77T152 40T179 22Q188 19 196 18T214 17Z" />
<glyph unicode="r" glyph-name="r" horiz-adv-x="331" d="M0 0L1 4Q17 10 30 16Q41 21 51 28T64 43L129 305Q137 335 141 355T149 388Q153 402 154 411Q156 419 150 425T135 437Q125 443 112 448L113 452Q148 452 174 454T217 459Q237 462 252 466L237 404Q275
432 315 442T386 452Q413 452 425 447H426Q428 447 432 445Q436 442 437 439T437 427L431 411Q423 393 413 376T392 358Q388 358 385 361L368 380Q353 397 336 407T298 417Q272 417 247 398Q245 397 241 394T233 388L167 123L148 43Q146 35 152 28T167 16Q177 10
190 4L189 0H0Z" />
<glyph unicode="s" glyph-name="s" horiz-adv-x="321" d="M154 0Q137 0 124 2T95 8Q84 10 74 13T53 19L40 20Q33 20 27 19T16 17Q10 16 4 15L33 134Q37 109 47 88Q55 69 68 51T103 23Q127 12 161 12Q179 12 195 20T225 40T249 69T263 102L264 108Q268 127 264
140T248 165T219 186T180 207Q145 225 124 241T93 272T82 304T84 337Q88 355 101 375T137 412T192 440T266 452H268Q293 451 316 446T358 435Q363 433 366 433T375 433Q381 433 386 433T397 435Q402 436 407 437L377 317Q373 351 361 377Q350 400 329 419T271 440Q253
440 235 436T202 423T174 402T158 371L157 359Q155 343 164 332T189 311T228 291T275 267Q306 249 324 232T350 197T358 164T355 135Q352 123 347 113Q345 107 335 89T302 52T243 16T154 0Z" />
<glyph unicode="t" glyph-name="t" horiz-adv-x="302" d="M216 0Q153 0 123 40T115 170L183 440H110L113 452H186L202 516Q204 524 197 530T182 542Q172 548 159 553L160 557Q195 557 221 562T267 575Q289 583 305 594L271 452H415L412 440H268L200 170Q188 122
189 94T200 50T222 29T249 24H255Q266 25 277 29T299 40Q290 29 278 20Q267 12 252 6T216 0Z" />
<glyph unicode="u" glyph-name="u" horiz-adv-x="494" d="M378 80Q368 71 351 57T312 31T265 9T214 0Q175 0 149 14T108 56T93 120T103 202L129 304L128 306L154 411Q156 419 150 425T135 437Q125 443 112 448L113 452Q148 452 174 454T217 459Q237 462 252 466L187
201Q174 150 174 117T184 63T208 33T241 23H245Q264 23 283 31T321 50T355 75T383 99L460 411Q462 419 456 425T441 437Q431 443 418 448L419 452Q454 452 480 454T523 459Q543 462 558 466L456 55Q454 47 460 41T475 29Q485 23 498 18L497 14Q462 14 436 12T393
7Q373 3 358 0L378 80Z" />
<glyph unicode="v" glyph-name="v" horiz-adv-x="443" d="M165 378Q160 401 152 415T134 437Q123 446 112 448L113 452H317L316 448Q301 445 289 439Q278 434 268 426T256 406L255 396Q255 390 255 377T258 349Q260 332 262 314L286 137L401 314H400Q416 336 429
356T452 396L454 402Q456 412 452 420T440 435Q432 442 420 448L421 452H556L555 448Q540 445 523 437Q509 430 492 417T459 380L213 0L165 378Z" />
<glyph unicode="w" glyph-name="w" horiz-adv-x="692" d="M422 323L212 0L165 378Q160 401 152 415T134 437Q123 446 112 448L113 452H317L316 448Q300 444 288 438Q277 433 268 425T255 405Q254 402 254 396Q254 390 255 377T258 349Q260 332 262 314L286 137L419
342L414 378Q409 401 401 415T383 437Q372 446 361 448L362 452H567L566 448Q550 445 538 439Q527 434 517 426T505 406L504 396Q504 390 505 377T508 349Q510 332 512 314L535 137L650 314Q664 337 677 357T702 396L704 402Q706 411 701 419T689 434Q680 441 669
448L670 452H805L804 448Q789 445 772 437Q758 430 741 417T708 380L462 0L422 323Z" />
<glyph unicode="x" glyph-name="x" horiz-adv-x="468" d="M263 0L264 4Q276 9 287 14Q296 19 304 25T315 42Q317 48 314 54L261 191L127 56Q120 48 117 40Q115 32 117 26T124 14Q128 9 135 4L134 1H72V0H57V1H0L1 4Q20 6 41 15Q59 23 82 36T130 74L257 201L213
314Q213 315 212 317Q211 319 209 327L180 399Q171 416 161 425T142 440Q132 446 123 448L124 452H329L328 449Q316 445 306 440Q298 435 290 429T280 413Q278 407 280 401L329 274L449 395L450 396Q458 404 460 413Q462 421 460 427T453 438Q449 443 443 448L444
452H578L577 448Q558 446 537 437Q519 429 496 415T447 378L334 264L416 53Q425 36 434 27T451 12Q460 6 469 4L468 0H263Z" />
<glyph unicode="y" glyph-name="y" horiz-adv-x="443" d="M-14 -196Q-19 -196 -21 -195Q-25 -193 -26 -188T-29 -169Q-30 -160 -30 -150T-27 -131Q-25 -122 -21 -116T-8 -110H-5Q0 -111 5 -112T16 -116Q19 -116 21 -117Q46 -123 68 -123L91 -121Q102 -118 113
-113T132 -99L135 -95L152 -71L211 19L165 378Q160 401 152 415T134 437Q123 446 112 448L113 452H317L316 448Q301 445 289 439Q278 434 268 426T256 406L255 396Q255 390 255 377T258 349Q260 332 262 314L286 137L401 314H400Q416 336 429 356T452 396L454 402Q456
412 452 420T440 435Q432 442 420 448L421 452H556L555 448Q540 445 523 437Q509 430 492 417T459 380L296 130H297Q271 90 246 52Q225 20 203 -14T166 -72Q164 -75 163 -78T159 -83L150 -96Q131 -121 107 -140Q75 -166 44 -179T-4 -195Q-6 -196 -11 -196H-14Z"
/>
<glyph unicode="z" glyph-name="z" horiz-adv-x="353" d="M6 0L359 440H228Q193 440 167 424T122 389Q100 367 84 339L123 452H465L114 12H238Q272 12 298 27T343 62Q364 84 381 113L343 0H6Z" />
<glyph unicode="{" glyph-name="braceleft" horiz-adv-x="354" d="M245 -59Q253 -63 261 -67T278 -77Q294 -87 293 -87Q153 -96 149 -35Q147 -8 156 31Q161 52 166 73T178 118Q205 215 194 247Q185 278 173 293Q162 308 141 322L120 337Q118 337 147 349Q161 355
172 361T193 374Q202 381 211 387T228 400Q244 415 251 424Q258 436 267 470Q272 486 276 504T284 544Q289 567 294 588T306 630Q311 651 317 667T331 697Q368 756 506 749Q495 749 467 737Q438 725 418 712Q397 697 387 679Q374 658 365 624Q355 589 347 551Q342
528 337 507T327 464Q321 444 315 428T301 398Q268 347 230 333Q259 317 267 263Q269 251 267 235T260 197Q255 177 250 156T238 111Q232 91 228 70T218 27Q210 -17 220 -32Q229 -49 245 -59Z" />
<glyph unicode="|" glyph-name="bar" horiz-adv-x="99" d="M247 737L50 -54H21L218 735L247 737Z" />
<glyph unicode="}" glyph-name="braceright" horiz-adv-x="355" d="M119 -32Q137 -17 151 27Q157 49 162 70T173 111Q178 134 183 155T193 197Q199 218 205 234T219 263Q236 289 253 307T291 333Q261 346 253 398Q250 421 260 464Q265 485 270 506T282 551Q288
571 292 589T301 624Q308 657 307 679Q305 698 292 712Q280 724 256 737Q232 749 223 749Q365 757 371 697Q372 684 370 668T363 630Q358 610 353 589T342 544Q336 523 331 505T322 470Q315 437 316 424Q317 414 327 400Q332 393 337 387T349 374Q355 368 363 362T382
349L403 337Q400 335 396 333Q392 331 387 329T375 322Q347 309 328 293Q318 285 307 274T284 247Q258 215 236 118Q231 95 226 74T214 31Q204 -8 188 -35Q154 -96 18 -87Q18 -87 39 -77Q50 -72 60 -68T81 -59Q101 -50 119 -32Z" />
<glyph unicode="~" glyph-name="asciitilde" horiz-adv-x="500" d="M336 598Q318 598 303 591T276 575Q263 565 252 553Q297 656 374 656Q385 655 398 653T426 644Q455 633 480 633Q497 633 512 639T538 654Q551 663 563 675Q540 622 510 599T441 575Q414 575
388 586Q359 598 336 598Z" />
</font>
</defs>
</svg>
